<svg xmlns="http://www.w3.org/2000/svg" width="31.113" height="25.032" viewBox="0 0 31.113 25.032">
  <path id="Path_144" data-name="Path 144" d="M66.223,49.261a13.036,13.036,0,0,1-3.371.861,6.351,6.351,0,0,0,2.736-3.247.1.1,0,0,0-.142-.12,12.938,12.938,0,0,1-3.848,1.4,6.455,6.455,0,0,0-4.687-2,6.323,6.323,0,0,0-6.253,7.759,18.334,18.334,0,0,1-13.2-6.564.036.036,0,0,0-.059,0,6.258,6.258,0,0,0,1.9,8.315.039.039,0,0,1-.024.072A6.49,6.49,0,0,1,36.558,55a.032.032,0,0,0-.049.029,8.527,8.527,0,0,0,.433,2.312,6.478,6.478,0,0,0,4.716,3.908,6.731,6.731,0,0,1-1.7.224,6.41,6.41,0,0,1-1.151-.107.036.036,0,0,0-.04.047,6.42,6.42,0,0,0,5.87,4.327.039.039,0,0,1,.023.069,12.991,12.991,0,0,1-7.888,2.641,13.364,13.364,0,0,1-1.529-.087A18.386,18.386,0,0,0,45.087,71.2a17.88,17.88,0,0,0,12.027-4.342,18.542,18.542,0,0,0,5.8-9.823,17.361,17.361,0,0,0,.439-3.815c0-.272-.007-.546-.021-.817a12.912,12.912,0,0,0,3.007-2.992A.1.1,0,0,0,66.223,49.261Z" transform="translate(-35.248 -46.165)" fill="#132f65"/>
</svg>
