<svg xmlns="http://www.w3.org/2000/svg" width="40.201" height="38.304" viewBox="0 0 40.201 38.304">
  <g id="Group_61" data-name="Group 61" transform="translate(0)">
    <path id="Path_1" data-name="Path 1" d="M421.236,277.96c0-8.994-9.017-16.312-20.1-16.312s-20.1,7.318-20.1,16.312c0,8.064,7.151,14.816,16.81,16.093.655.141,1.546.432,1.771.991a4.128,4.128,0,0,1,.065,1.818s-.236,1.418-.287,1.72c-.088.508-.4,1.987,1.741,1.084s11.576-6.816,15.794-11.67h0c2.913-3.195,4.308-6.437,4.308-10.036" transform="translate(-381.035 -261.648)" fill="#132f65"/>
    <g id="Group_1" data-name="Group 1" transform="translate(6.594 11.965)">
      <path id="Path_2" data-name="Path 2" d="M411.061,285.4h-1.41a.391.391,0,0,0-.391.391v8.759a.391.391,0,0,0,.391.391h1.41a.391.391,0,0,0,.391-.391V285.8a.391.391,0,0,0-.391-.391" transform="translate(-401.638 -285.405)" fill="#e4e4e4"/>
      <path id="Path_3" data-name="Path 3" d="M424.277,285.4h-1.41a.391.391,0,0,0-.391.391V291l-4.014-5.42a.4.4,0,0,0-.03-.04l0,0-.024-.024-.007-.007-.021-.018-.01-.008-.02-.014-.012-.007-.021-.012-.013-.006-.023-.009-.013,0-.023-.008-.014,0-.023-.005-.016,0-.021,0h-1.444a.391.391,0,0,0-.391.391v8.759a.391.391,0,0,0,.391.391h1.41a.391.391,0,0,0,.392-.391v-5.2l4.019,5.427a.389.389,0,0,0,.1.1l0,0,.024.015.011.006.019.009.019.008.012,0,.027.009h.006a.386.386,0,0,0,.1.014h1.41a.391.391,0,0,0,.391-.391V285.8a.391.391,0,0,0-.391-.391" transform="translate(-405.15 -285.405)" fill="#e4e4e4"/>
      <path id="Path_4" data-name="Path 4" d="M400.151,292.752H396.32V285.8a.391.391,0,0,0-.391-.391h-1.41a.392.392,0,0,0-.392.391v8.758h0a.391.391,0,0,0,.11.27l.006.006.006.005a.389.389,0,0,0,.27.109h5.633a.391.391,0,0,0,.391-.391v-1.41a.391.391,0,0,0-.391-.392" transform="translate(-394.127 -285.405)" fill="#e4e4e4"/>
      <path id="Path_5" data-name="Path 5" d="M441.627,287.6a.391.391,0,0,0,.391-.392V285.8a.391.391,0,0,0-.391-.392h-5.633a.39.39,0,0,0-.271.11l0,0-.007.007a.393.393,0,0,0-.108.27h0v8.757h0a.39.39,0,0,0,.109.27l.005.006.006.005a.39.39,0,0,0,.27.109h5.633a.391.391,0,0,0,.391-.391v-1.41a.391.391,0,0,0-.391-.391H437.8v-1.481h3.831a.391.391,0,0,0,.391-.391v-1.41a.391.391,0,0,0-.391-.392H437.8V287.6Z" transform="translate(-414.714 -285.405)" fill="#e4e4e4"/>
    </g>
  </g>
</svg>
